<svg width="15" height="15" viewBox="0 0 15 15" fill="none" xmlns="http://www.w3.org/2000/svg">
<path d="M14.4234 7.06557C15.5308 6.22798 14.9384 4.46293 13.55 4.46293H11.0377C10.4028 4.46293 9.84195 4.04929 9.65442 3.4427L8.90551 1.02027C8.48496 -0.340033 6.55948 -0.340033 6.13893 1.02027L5.39002 3.4427C5.20248 4.04929 4.64164 4.46293 4.00673 4.46293H1.45104C0.0670746 4.46293 -0.52811 6.21856 0.570524 7.0602L2.75939 8.73704C3.23942 9.10478 3.44036 9.73211 3.26333 10.3103L2.46802 12.9078C2.05558 14.2548 3.61465 15.3378 4.73298 14.481L6.64171 13.0188C7.16125 12.6208 7.88319 12.6208 8.40273 13.0188L10.2946 14.4681C11.4145 15.3261 12.9751 14.2389 12.5584 12.8911L11.7521 10.2829C11.5721 9.70074 11.7759 9.06815 12.2619 8.70053L14.4234 7.06557Z" fill="#FFAD33"/>
</svg>
